<svg width="72" height="72" viewBox="0 0 72 72" fill="none" xmlns="http://www.w3.org/2000/svg">
<g filter="url(#filter0_d_204_6065)">
<rect x="4" width="64" height="64" rx="32" fill="#FFF7EC"/>
<path d="M50.0043 54.1959C50.5216 55.0158 51.6094 55.2655 52.3954 54.6979C56.8202 51.5017 60.2257 47.0729 62.1737 41.9466C64.3302 36.272 64.5841 30.0503 62.8971 24.2189C61.2101 18.3875 57.6737 13.2623 52.8207 9.61552C47.9676 5.96873 42.0608 3.9979 35.9903 4C29.9198 4.0021 24.0144 5.977 19.1639 9.62714C14.3133 13.2773 10.7805 18.4049 9.09751 24.2375C7.41457 30.0701 7.67275 36.2916 9.83314 41.9647C11.7848 47.0896 15.1932 51.5161 19.6203 54.7092C20.4066 55.2763 21.4943 55.0258 22.0111 54.2055C22.5278 53.3852 22.2774 52.3063 21.4962 51.7321C17.7108 48.9498 14.7949 45.1286 13.1142 40.7152C11.2247 35.7535 10.9989 30.3121 12.4708 25.2108C13.9427 20.1096 17.0326 15.6249 21.275 12.4325C25.5173 9.24002 30.6822 7.51275 35.9915 7.51092C41.3009 7.50909 46.467 9.23278 50.7115 12.4223C54.9561 15.6118 58.049 20.0944 59.5245 25.1946C60.9999 30.2948 60.7779 35.7364 58.8918 40.6994C57.2142 45.1139 54.3009 48.9371 50.5175 51.7221C49.7367 52.2968 49.4869 53.3759 50.0043 54.1959Z" fill="#4754AE"/>
<path fill-rule="evenodd" clip-rule="evenodd" d="M37.7466 40.75H34.2466H25.4966V53C25.4966 53.9283 25.8653 54.8185 26.5217 55.4749C27.1781 56.1313 28.0683 56.5 28.9966 56.5H42.9966C43.9248 56.5 44.8151 56.1313 45.4715 55.4749C46.1278 54.8185 46.4966 53.9283 46.4966 53V40.75H37.7466Z" fill="#FF6F61"/>
<path fill-rule="evenodd" clip-rule="evenodd" d="M51.7466 23.25V26.75C51.7466 29.9989 50.456 33.1147 48.1586 35.4121C45.8613 37.7094 42.7455 39 39.4966 39H37.7466H34.2466V35.5C34.2466 32.2511 35.5372 29.1353 37.8345 26.8379C40.1318 24.5406 43.2477 23.25 46.4966 23.25H51.7466ZM24.6216 21.5C26.7215 21.4983 28.7912 22.0012 30.6562 22.9663C32.5213 23.9314 34.1271 25.3305 35.3386 27.0458C33.4903 29.4762 32.4917 32.4466 32.4966 35.5V37.25H31.6216C28.1406 37.25 24.8022 35.8672 22.3408 33.4058C19.8794 30.9444 18.4966 27.606 18.4966 24.125V21.5H24.6216Z" fill="#43DB66"/>
</g>
<defs>
<filter id="filter0_d_204_6065" x="0" y="0" width="72" height="72" filterUnits="userSpaceOnUse" color-interpolation-filters="sRGB">
<feFlood flood-opacity="0" result="BackgroundImageFix"/>
<feColorMatrix in="SourceAlpha" type="matrix" values="0 0 0 0 0 0 0 0 0 0 0 0 0 0 0 0 0 0 127 0" result="hardAlpha"/>
<feOffset dy="4"/>
<feGaussianBlur stdDeviation="2"/>
<feComposite in2="hardAlpha" operator="out"/>
<feColorMatrix type="matrix" values="0 0 0 0 0 0 0 0 0 0 0 0 0 0 0 0 0 0 0.25 0"/>
<feBlend mode="normal" in2="BackgroundImageFix" result="effect1_dropShadow_204_6065"/>
<feBlend mode="normal" in="SourceGraphic" in2="effect1_dropShadow_204_6065" result="shape"/>
</filter>
</defs>
</svg>
